<svg width="34" height="16" viewBox="0 0 34 16" fill="none" xmlns="http://www.w3.org/2000/svg">
<path d="M33 9C33.5523 9 34 8.55228 34 8C34 7.44772 33.5523 7 33 7L33 9ZM0.292893 7.2929C-0.0976311 7.68342 -0.097631 8.31659 0.292893 8.70711L6.65685 15.0711C7.04738 15.4616 7.68054 15.4616 8.07107 15.0711C8.46159 14.6805 8.46159 14.0474 8.07107 13.6569L2.41421 8L8.07107 2.34315C8.46159 1.95262 8.46159 1.31946 8.07107 0.928934C7.68054 0.53841 7.04738 0.53841 6.65685 0.928934L0.292893 7.2929ZM33 7L1 7L1 9L33 9L33 7Z" fill="#F3ECD7"/>
</svg>
