<svg width="27" height="9" viewBox="0 0 27 9" fill="none" xmlns="http://www.w3.org/2000/svg">
<path d="M1 4C0.723858 4 0.5 4.22386 0.5 4.5C0.5 4.77614 0.723858 5 1 5V4ZM26.3536 4.85355C26.5488 4.65829 26.5488 4.34171 26.3536 4.14645L23.1716 0.964467C22.9763 0.769205 22.6597 0.769205 22.4645 0.964467C22.2692 1.15973 22.2692 1.47631 22.4645 1.67157L25.2929 4.5L22.4645 7.32843C22.2692 7.52369 22.2692 7.84027 22.4645 8.03553C22.6597 8.2308 22.9763 8.2308 23.1716 8.03553L26.3536 4.85355ZM1 5H26V4H1V5Z" fill="#F3ECD7"/>
</svg>
