<svg width="141" height="31" viewBox="0 0 141 31" fill="none" xmlns="http://www.w3.org/2000/svg">
<rect width="141" height="31" rx="13" fill="#204D38"/>
<path d="M6.37454 10H12.4345C14.7895 10 15.7045 11.185 15.7045 12.88C15.7045 14.575 14.7895 15.76 12.4345 15.76H12.2395L15.4045 20.5H13.2595L10.1245 15.76H8.21954V20.5H6.37454V10ZM8.21954 11.665V14.095H12.3745C13.3495 14.095 13.8445 13.705 13.8445 12.88C13.8445 12.055 13.3495 11.665 12.3745 11.665H8.21954ZM25.8609 18.835V20.5H17.5659V10H25.2309V11.665H19.4109V13.9H25.7559V15.505H19.4109V18.835H25.8609ZM33.2641 10L37.9291 20.5H35.8891L34.5091 17.35H30.0841L28.7191 20.5H26.7091L31.3741 10H33.2641ZM32.3041 12.25L30.7891 15.745H33.8191L32.3041 12.25ZM43.4606 10C46.7456 10 48.8156 11.905 48.8156 15.25C48.8156 18.595 46.7456 20.5 43.4606 20.5H39.2456V10H43.4606ZM43.4156 18.835C45.7106 18.835 46.9556 17.56 46.9556 15.25C46.9556 12.94 45.7106 11.665 43.4156 11.665H41.0906V18.835H43.4156ZM60.6492 18.22L64.5792 10H66.9642V20.5H65.1192V12.79L61.4142 20.5H59.8542L56.1492 12.79V20.5H54.3042V10H56.7192L60.6492 18.22ZM79.8764 15.25C79.8764 18.43 77.5814 20.725 74.3564 20.725C71.1314 20.725 68.8364 18.43 68.8364 15.25C68.8364 12.07 71.1314 9.775 74.3564 9.775C77.5814 9.775 79.8764 12.07 79.8764 15.25ZM70.6964 15.25C70.6964 17.545 72.2264 19.06 74.3564 19.06C76.4864 19.06 78.0164 17.545 78.0164 15.25C78.0164 12.955 76.4864 11.44 74.3564 11.44C72.2264 11.44 70.6964 12.955 70.6964 15.25ZM81.7554 10H87.8154C90.1704 10 91.0854 11.185 91.0854 12.88C91.0854 14.575 90.1704 15.76 87.8154 15.76H87.6204L90.7854 20.5H88.6404L85.5054 15.76H83.6004V20.5H81.7554V10ZM83.6004 11.665V14.095H87.7554C88.7304 14.095 89.2254 13.705 89.2254 12.88C89.2254 12.055 88.7304 11.665 87.7554 11.665H83.6004ZM101.242 18.835V20.5H92.9468V10H100.612V11.665H94.7918V13.9H101.137V15.505H94.7918V18.835H101.242Z" fill="#F3ECD7"/>
<path d="M111 15C110.724 15 110.5 15.2239 110.5 15.5C110.5 15.7761 110.724 16 111 16V15ZM136.354 15.8536C136.549 15.6583 136.549 15.3417 136.354 15.1464L133.172 11.9645C132.976 11.7692 132.66 11.7692 132.464 11.9645C132.269 12.1597 132.269 12.4763 132.464 12.6716L135.293 15.5L132.464 18.3284C132.269 18.5237 132.269 18.8403 132.464 19.0355C132.66 19.2308 132.976 19.2308 133.172 19.0355L136.354 15.8536ZM111 16H136V15H111V16Z" fill="#F3ECD7"/>
</svg>
